<svg width="104" height="100" viewBox="0 0 104 100" fill="none" xmlns="http://www.w3.org/2000/svg">
<path d="M71.4078 20.7493L71.4542 31.6066L60.8414 20.7493H71.4078Z" fill="#92278F"/>
<path d="M82.067 20.7493L71.6089 31.6066L71.7172 20.7493H82.067Z" fill="#662D91"/>
<path d="M71.4542 42.9321L71.6707 31.7484L82.2681 42.776L71.4542 42.9321Z" fill="#662D91"/>
<path d="M60.9652 43.0031L71.4542 31.7484L71.1603 42.9321L60.9652 43.0031Z" fill="#92278F"/>
<path d="M101.715 31.2375C101.715 46.5228 88.2088 58.9128 71.547 58.9128C69.0872 58.9128 66.6893 58.6432 64.3996 58.1322C61.7542 48.1265 53.168 40.2355 42.2458 37.8086C41.6734 35.7082 41.3795 33.5083 41.3795 31.2375C41.3795 15.9523 54.8852 3.56226 71.547 3.56226C88.2088 3.56226 101.715 15.9523 101.715 31.2375Z" stroke="#92278F" stroke-width="3" stroke-miterlimit="10"/>
<path d="M65.2505 64.6892C65.2505 79.9745 51.7447 92.3645 35.0829 92.3645C18.4211 92.3645 4.91534 79.9745 4.91534 64.6892C4.91534 49.4039 18.4211 37.0139 35.0829 37.0139C37.5582 37.0139 39.9561 37.2836 42.2458 37.8087C53.168 40.2356 61.7541 48.1266 64.3996 58.1323C64.9565 60.2328 65.2505 62.4326 65.2505 64.6892Z" stroke="#92278F" stroke-width="3" stroke-miterlimit="10"/>
<path d="M31.4319 0L44.3343 12.8726L29.9777 25.4187L31.4319 0Z" fill="#662D91"/>
<path d="M5.31763 42.18C-0.360062 31.933 1.44999 21.0049 9.21621 15.413C16.7349 10.0057 26.8372 11.7656 28.6163 12.092" stroke="#662D91" stroke-width="3" stroke-miterlimit="10"/>
<path d="M72.5681 100L59.6656 87.1275L74.0223 74.5813L72.5681 100Z" fill="#92278F"/>
<path d="M98.6824 57.82C104.36 68.067 102.55 78.9951 94.7838 84.587C87.2651 89.9943 77.1628 88.2344 75.3837 87.908" stroke="#92278F" stroke-width="3" stroke-miterlimit="10"/>
<path d="M36.8466 70.0256L28.709 65.0582L37.0941 60.4173L36.8466 70.0256Z" fill="#92278F"/>
<path d="M37.3416 60.4314L45.4791 65.3988L37.0941 70.0255L37.3416 60.4314Z" fill="#662D91"/>
<path d="M37.0941 48.9355V60.1901L28.709 64.8169L37.0941 48.9355Z" fill="#92278F"/>
<path d="M45.5255 65.6259L36.8156 80.457L37.1869 70.3094L45.5255 65.6259Z" fill="#662D91"/>
<path d="M37.388 48.9355L45.4791 65.2285L37.388 60.2043V48.9355Z" fill="#662D91"/>
<path d="M28.709 65.3705L36.8156 70.3094L36.6145 80.457L28.709 65.3705Z" fill="#92278F"/>
</svg>
