<svg width="188" height="37" viewBox="0 0 188 37" fill="none" xmlns="http://www.w3.org/2000/svg">
<path d="M51.44 27.168C50.272 27.168 49.216 26.968 48.272 26.568C47.344 26.168 46.608 25.592 46.064 24.84C45.52 24.088 45.24 23.2 45.224 22.176H48.824C48.872 22.864 49.112 23.408 49.544 23.808C49.992 24.208 50.6 24.408 51.368 24.408C52.152 24.408 52.768 24.224 53.216 23.856C53.664 23.472 53.888 22.976 53.888 22.368C53.888 21.872 53.736 21.464 53.432 21.144C53.128 20.824 52.744 20.576 52.28 20.4C51.832 20.208 51.208 20 50.408 19.776C49.32 19.456 48.432 19.144 47.744 18.84C47.072 18.52 46.488 18.048 45.992 17.424C45.512 16.784 45.272 15.936 45.272 14.88C45.272 13.888 45.52 13.024 46.016 12.288C46.512 11.552 47.208 10.992 48.104 10.608C49 10.208 50.024 10.008 51.176 10.008C52.904 10.008 54.304 10.432 55.376 11.28C56.464 12.112 57.064 13.28 57.176 14.784H53.48C53.448 14.208 53.2 13.736 52.736 13.368C52.288 12.984 51.688 12.792 50.936 12.792C50.28 12.792 49.752 12.96 49.352 13.296C48.968 13.632 48.776 14.12 48.776 14.76C48.776 15.208 48.92 15.584 49.208 15.888C49.512 16.176 49.88 16.416 50.312 16.608C50.76 16.784 51.384 16.992 52.184 17.232C53.272 17.552 54.16 17.872 54.848 18.192C55.536 18.512 56.128 18.992 56.624 19.632C57.12 20.272 57.368 21.112 57.368 22.152C57.368 23.048 57.136 23.88 56.672 24.648C56.208 25.416 55.528 26.032 54.632 26.496C53.736 26.944 52.672 27.168 51.44 27.168ZM66.185 27.216C64.905 27.216 63.753 26.936 62.729 26.376C61.705 25.8 60.897 24.992 60.305 23.952C59.729 22.912 59.441 21.712 59.441 20.352C59.441 18.992 59.737 17.792 60.329 16.752C60.937 15.712 61.761 14.912 62.801 14.352C63.841 13.776 65.001 13.488 66.281 13.488C67.561 13.488 68.721 13.776 69.761 14.352C70.801 14.912 71.617 15.712 72.209 16.752C72.817 17.792 73.121 18.992 73.121 20.352C73.121 21.712 72.809 22.912 72.185 23.952C71.577 24.992 70.745 25.8 69.689 26.376C68.649 26.936 67.481 27.216 66.185 27.216ZM66.185 24.288C66.793 24.288 67.361 24.144 67.889 23.856C68.433 23.552 68.865 23.104 69.185 22.512C69.505 21.92 69.665 21.2 69.665 20.352C69.665 19.088 69.329 18.12 68.657 17.448C68.001 16.76 67.193 16.416 66.233 16.416C65.273 16.416 64.465 16.76 63.809 17.448C63.169 18.12 62.849 19.088 62.849 20.352C62.849 21.616 63.161 22.592 63.785 23.28C64.425 23.952 65.225 24.288 66.185 24.288ZM78.9457 9.24V27H75.5857V9.24H78.9457ZM87.3534 27.216C86.2654 27.216 85.2894 27.024 84.4254 26.64C83.5614 26.24 82.8734 25.704 82.3614 25.032C81.8654 24.36 81.5934 23.616 81.5454 22.8H84.9294C84.9934 23.312 85.2414 23.736 85.6734 24.072C86.1214 24.408 86.6734 24.576 87.3294 24.576C87.9694 24.576 88.4654 24.448 88.8174 24.192C89.1854 23.936 89.3694 23.608 89.3694 23.208C89.3694 22.776 89.1454 22.456 88.6974 22.248C88.2654 22.024 87.5694 21.784 86.6094 21.528C85.6174 21.288 84.8014 21.04 84.1614 20.784C83.5374 20.528 82.9934 20.136 82.5294 19.608C82.0814 19.08 81.8574 18.368 81.8574 17.472C81.8574 16.736 82.0654 16.064 82.4814 15.456C82.9134 14.848 83.5214 14.368 84.3054 14.016C85.1054 13.664 86.0414 13.488 87.1134 13.488C88.6974 13.488 89.9614 13.888 90.9054 14.688C91.8494 15.472 92.3694 16.536 92.4654 17.88H89.2494C89.2014 17.352 88.9774 16.936 88.5774 16.632C88.1934 16.312 87.6734 16.152 87.0174 16.152C86.4094 16.152 85.9374 16.264 85.6014 16.488C85.2814 16.712 85.1214 17.024 85.1214 17.424C85.1214 17.872 85.3454 18.216 85.7934 18.456C86.2414 18.68 86.9374 18.912 87.8814 19.152C88.8414 19.392 89.6334 19.64 90.2574 19.896C90.8814 20.152 91.4174 20.552 91.8654 21.096C92.3294 21.624 92.5694 22.328 92.5854 23.208C92.5854 23.976 92.3694 24.664 91.9374 25.272C91.5214 25.88 90.9134 26.36 90.1134 26.712C89.3294 27.048 88.4094 27.216 87.3534 27.216ZM94.4795 20.352C94.4795 18.976 94.7595 17.776 95.3195 16.752C95.8795 15.712 96.6555 14.912 97.6475 14.352C98.6395 13.776 99.7755 13.488 101.056 13.488C102.704 13.488 104.064 13.904 105.136 14.736C106.224 15.552 106.952 16.704 107.32 18.192H103.696C103.504 17.616 103.176 17.168 102.712 16.848C102.264 16.512 101.704 16.344 101.032 16.344C100.072 16.344 99.3115 16.696 98.7515 17.4C98.1915 18.088 97.9115 19.072 97.9115 20.352C97.9115 21.616 98.1915 22.6 98.7515 23.304C99.3115 23.992 100.072 24.336 101.032 24.336C102.392 24.336 103.28 23.728 103.696 22.512H107.32C106.952 23.952 106.224 25.096 105.136 25.944C104.048 26.792 102.688 27.216 101.056 27.216C99.7755 27.216 98.6395 26.936 97.6475 26.376C96.6555 25.8 95.8795 25 95.3195 23.976C94.7595 22.936 94.4795 21.728 94.4795 20.352ZM113.141 15.768C113.573 15.064 114.133 14.512 114.821 14.112C115.525 13.712 116.325 13.512 117.221 13.512V17.04H116.333C115.277 17.04 114.477 17.288 113.933 17.784C113.405 18.28 113.141 19.144 113.141 20.376V27H109.781V13.704H113.141V15.768ZM121.188 12.12C120.596 12.12 120.1 11.936 119.7 11.568C119.316 11.184 119.124 10.712 119.124 10.152C119.124 9.592 119.316 9.128 119.7 8.76C120.1 8.376 120.596 8.184 121.188 8.184C121.78 8.184 122.268 8.376 122.652 8.76C123.052 9.128 123.252 9.592 123.252 10.152C123.252 10.712 123.052 11.184 122.652 11.568C122.268 11.936 121.78 12.12 121.188 12.12ZM122.844 13.704V27H119.484V13.704H122.844ZM129.524 15.624C129.956 15.016 130.548 14.512 131.3 14.112C132.068 13.696 132.94 13.488 133.916 13.488C135.052 13.488 136.076 13.768 136.988 14.328C137.916 14.888 138.644 15.688 139.172 16.728C139.716 17.752 139.988 18.944 139.988 20.304C139.988 21.664 139.716 22.872 139.172 23.928C138.644 24.968 137.916 25.776 136.988 26.352C136.076 26.928 135.052 27.216 133.916 27.216C132.94 27.216 132.076 27.016 131.324 26.616C130.588 26.216 129.988 25.712 129.524 25.104V33.336H126.164V13.704H129.524V15.624ZM136.556 20.304C136.556 19.504 136.388 18.816 136.052 18.24C135.732 17.648 135.3 17.2 134.756 16.896C134.228 16.592 133.652 16.44 133.028 16.44C132.42 16.44 131.844 16.6 131.3 16.92C130.772 17.224 130.34 17.672 130.004 18.264C129.684 18.856 129.524 19.552 129.524 20.352C129.524 21.152 129.684 21.848 130.004 22.44C130.34 23.032 130.772 23.488 131.3 23.808C131.844 24.112 132.42 24.264 133.028 24.264C133.652 24.264 134.228 24.104 134.756 23.784C135.3 23.464 135.732 23.008 136.052 22.416C136.388 21.824 136.556 21.12 136.556 20.304ZM146.341 16.464V22.896C146.341 23.344 146.445 23.672 146.653 23.88C146.877 24.072 147.245 24.168 147.757 24.168H149.317V27H147.205C144.373 27 142.957 25.624 142.957 22.872V16.464H141.373V13.704H142.957V10.416H146.341V13.704H149.317V16.464H146.341ZM153.438 12.12C152.846 12.12 152.35 11.936 151.95 11.568C151.566 11.184 151.374 10.712 151.374 10.152C151.374 9.592 151.566 9.128 151.95 8.76C152.35 8.376 152.846 8.184 153.438 8.184C154.03 8.184 154.518 8.376 154.902 8.76C155.302 9.128 155.502 9.592 155.502 10.152C155.502 10.712 155.302 11.184 154.902 11.568C154.518 11.936 154.03 12.12 153.438 12.12ZM155.094 13.704V27H151.734V13.704H155.094ZM164.318 27.216C163.038 27.216 161.886 26.936 160.862 26.376C159.838 25.8 159.03 24.992 158.438 23.952C157.862 22.912 157.574 21.712 157.574 20.352C157.574 18.992 157.87 17.792 158.462 16.752C159.07 15.712 159.894 14.912 160.934 14.352C161.974 13.776 163.134 13.488 164.414 13.488C165.694 13.488 166.854 13.776 167.894 14.352C168.934 14.912 169.75 15.712 170.342 16.752C170.95 17.792 171.254 18.992 171.254 20.352C171.254 21.712 170.942 22.912 170.318 23.952C169.71 24.992 168.878 25.8 167.822 26.376C166.782 26.936 165.614 27.216 164.318 27.216ZM164.318 24.288C164.926 24.288 165.494 24.144 166.022 23.856C166.566 23.552 166.998 23.104 167.318 22.512C167.638 21.92 167.798 21.2 167.798 20.352C167.798 19.088 167.462 18.12 166.79 17.448C166.134 16.76 165.326 16.416 164.366 16.416C163.406 16.416 162.598 16.76 161.942 17.448C161.302 18.12 160.982 19.088 160.982 20.352C160.982 21.616 161.294 22.592 161.918 23.28C162.558 23.952 163.358 24.288 164.318 24.288ZM181.087 13.512C182.671 13.512 183.951 14.016 184.927 15.024C185.903 16.016 186.391 17.408 186.391 19.2V27H183.031V19.656C183.031 18.6 182.767 17.792 182.239 17.232C181.711 16.656 180.991 16.368 180.079 16.368C179.151 16.368 178.415 16.656 177.871 17.232C177.343 17.792 177.079 18.6 177.079 19.656V27H173.719V13.704H177.079V15.36C177.527 14.784 178.095 14.336 178.783 14.016C179.487 13.68 180.255 13.512 181.087 13.512Z" fill="#202020"/>
<path d="M26.987 8.46973L27.0037 12.3783L23.1831 8.46973H26.987Z" fill="#92278F"/>
<path d="M30.824 8.46973L27.0591 12.3783L27.0981 8.46973H30.824Z" fill="#662D91"/>
<path d="M27.0037 16.4553L27.0816 12.4292L30.8967 16.3991L27.0037 16.4553Z" fill="#662D91"/>
<path d="M23.2275 16.4809L27.0036 12.4292L26.8978 16.4553L23.2275 16.4809Z" fill="#92278F"/>
<path d="M37.8971 12.2453C37.8971 17.748 33.0351 22.2084 27.0368 22.2084C26.1513 22.2084 25.288 22.1113 24.4638 21.9274C23.5114 18.3254 20.4204 15.4846 16.4884 14.6109C16.2823 13.8547 16.1765 13.0628 16.1765 12.2453C16.1765 6.74263 21.0386 2.28223 27.0368 2.28223C33.0351 2.28223 37.8971 6.74263 37.8971 12.2453Z" stroke="#92278F" stroke-width="3" stroke-miterlimit="10"/>
<path d="M24.7702 24.2883C24.7702 29.791 19.9081 34.2514 13.9099 34.2514C7.91164 34.2514 3.04956 29.791 3.04956 24.2883C3.04956 18.7856 7.91164 14.3252 13.9099 14.3252C14.801 14.3252 15.6642 14.4223 16.4885 14.6113C20.4205 15.485 23.5115 18.3258 24.4639 21.9278C24.6644 22.684 24.7702 23.4759 24.7702 24.2883Z" stroke="#92278F" stroke-width="3" stroke-miterlimit="10"/>
<path d="M12.5954 1L17.2403 5.63412L12.0719 10.1507L12.5954 1Z" fill="#662D91"/>
<path d="M3.19435 16.1846C1.15038 12.4957 1.802 8.56154 4.59783 6.54849C7.30456 4.60185 10.9414 5.2354 11.5818 5.35292" stroke="#662D91" stroke-width="3" stroke-miterlimit="10"/>
<path d="M27.4044 37.0003L22.7595 32.3662L27.9279 27.8496L27.4044 37.0003Z" fill="#92278F"/>
<path d="M36.8055 21.8154C38.8494 25.5043 38.1978 29.4385 35.402 31.4515C32.6953 33.3982 29.0584 32.7646 28.418 32.6471" stroke="#92278F" stroke-width="3" stroke-miterlimit="10"/>
<path d="M14.5447 26.209L11.6152 24.4207L14.6338 22.75L14.5447 26.209Z" fill="#92278F"/>
<path d="M14.7229 22.7554L17.6524 24.5436L14.6338 26.2092L14.7229 22.7554Z" fill="#662D91"/>
<path d="M14.6338 18.6167V22.6684L11.6152 24.334L14.6338 18.6167Z" fill="#92278F"/>
<path d="M17.6693 24.625L14.5337 29.9642L14.6674 26.3111L17.6693 24.625Z" fill="#662D91"/>
<path d="M14.7397 18.6167L17.6525 24.4822L14.7397 22.6735V18.6167Z" fill="#662D91"/>
<path d="M11.6152 24.5332L14.5336 26.3112L14.4612 29.9644L11.6152 24.5332Z" fill="#92278F"/>
</svg>
