<?xml version="1.0" encoding="UTF-8"?><svg xmlns="http://www.w3.org/2000/svg" viewBox="0 0 133 133"><defs><style>.d{stroke:#662d91;}.d,.e{fill:none;stroke-miterlimit:10;stroke-width:3px;}.f{fill:#662d91;}.g{fill:#92278f;}.e{stroke:#92278f;}.h{fill:#231f20;}</style></defs><g id="a"/><g id="b"><g id="c"><g><circle class="h" cx="66.5" cy="66.5" r="66.5"/><g><g><polygon class="g" points="81.33 46.82 81.36 54.47 74.5 46.82 81.33 46.82"/><polygon class="f" points="88.22 46.82 81.46 54.47 81.53 46.82 88.22 46.82"/><polygon class="f" points="81.36 62.45 81.5 54.57 88.35 62.34 81.36 62.45"/><polygon class="g" points="74.58 62.5 81.36 54.57 81.17 62.45 74.58 62.5"/></g><path class="e" d="M100.92,54.21c0,10.77-8.73,19.5-19.5,19.5-1.59,0-3.14-.19-4.62-.55-1.71-7.05-7.26-12.61-14.32-14.32-.37-1.48-.56-3.03-.56-4.63,0-10.77,8.73-19.5,19.5-19.5s19.5,8.73,19.5,19.5Z"/><path class="e" d="M77.35,77.78c0,10.77-8.73,19.5-19.5,19.5s-19.5-8.73-19.5-19.5,8.73-19.5,19.5-19.5c1.6,0,3.15,.19,4.63,.56,7.06,1.71,12.61,7.27,14.32,14.32,.36,1.48,.55,3.03,.55,4.62Z"/><g><polygon class="f" points="55.49 32.2 63.83 41.27 54.55 50.11 55.49 32.2"/><path class="d" d="M38.61,61.92c-3.67-7.22-2.5-14.92,2.52-18.86,4.86-3.81,11.39-2.57,12.54-2.34"/></g><g><polygon class="g" points="82.08 102.66 73.74 93.59 83.02 84.75 82.08 102.66"/><path class="e" d="M98.96,72.94c3.67,7.22,2.5,14.92-2.52,18.86-4.86,3.81-11.39,2.57-12.54,2.34"/></g></g><g><polygon class="g" points="58.99 81.54 53.73 78.04 59.15 74.77 58.99 81.54"/><polygon class="f" points="59.31 74.78 64.57 78.28 59.15 81.54 59.31 74.78"/><polygon class="g" points="59.15 66.68 59.15 74.61 53.73 77.87 59.15 66.68"/><polygon class="f" points="64.6 78.44 58.97 88.89 59.21 81.74 64.6 78.44"/><polygon class="f" points="59.34 66.68 64.57 78.16 59.34 74.62 59.34 66.68"/><polygon class="g" points="53.73 78.26 58.97 81.74 58.84 88.89 53.73 78.26"/></g></g></g></g></svg>