<svg width="41" height="40" viewBox="0 0 41 40" fill="none" xmlns="http://www.w3.org/2000/svg">
<path d="M32.6168 8.88325C30.4001 7.84991 28.0001 7.09991 25.5001 6.66658C25.4782 6.66588 25.4564 6.66999 25.4362 6.67863C25.4161 6.68727 25.3981 6.70022 25.3834 6.71658C25.0834 7.26658 24.7334 7.98325 24.5001 8.53325C21.8484 8.13325 19.1518 8.13325 16.5001 8.53325C16.2668 7.96658 15.9168 7.26658 15.6001 6.71658C15.5834 6.68325 15.5334 6.66658 15.4834 6.66658C12.9834 7.09991 10.6001 7.84991 8.36678 8.88325C8.35011 8.88325 8.33345 8.89991 8.31678 8.91658C3.78345 15.6999 2.53345 22.2999 3.15011 28.8332C3.15011 28.8666 3.16678 28.8999 3.20011 28.9166C6.20011 31.1166 9.08345 32.4499 11.9334 33.3332C11.9834 33.3499 12.0334 33.3332 12.0501 33.2999C12.7168 32.3832 13.3168 31.4166 13.8334 30.3999C13.8668 30.3332 13.8334 30.2666 13.7668 30.2499C12.8168 29.8832 11.9168 29.4499 11.0334 28.9499C10.9668 28.9166 10.9668 28.8166 11.0168 28.7666C11.2001 28.6332 11.3834 28.4832 11.5668 28.3499C11.6001 28.3166 11.6501 28.3166 11.6834 28.3332C17.4168 30.9499 23.6001 30.9499 29.2668 28.3332C29.3001 28.3166 29.3501 28.3166 29.3834 28.3499C29.5668 28.4999 29.7501 28.6332 29.9334 28.7832C30.0001 28.8332 30.0001 28.9332 29.9168 28.9666C29.0501 29.4832 28.1334 29.8999 27.1834 30.2666C27.1168 30.2832 27.1001 30.3666 27.1168 30.4166C27.6501 31.4332 28.2501 32.3999 28.9001 33.3166C28.9501 33.3332 29.0001 33.3499 29.0501 33.3332C31.9168 32.4499 34.8001 31.1166 37.8001 28.9166C37.8334 28.8999 37.8501 28.8666 37.8501 28.8332C38.5834 21.2832 36.6334 14.7332 32.6834 8.91658C32.6668 8.89991 32.6501 8.88325 32.6168 8.88325ZM14.7001 24.8499C12.9834 24.8499 11.5501 23.2666 11.5501 21.3166C11.5501 19.3666 12.9501 17.7832 14.7001 17.7832C16.4668 17.7832 17.8668 19.3832 17.8501 21.3166C17.8501 23.2666 16.4501 24.8499 14.7001 24.8499ZM26.3168 24.8499C24.6001 24.8499 23.1668 23.2666 23.1668 21.3166C23.1668 19.3666 24.5668 17.7832 26.3168 17.7832C28.0834 17.7832 29.4834 19.3832 29.4668 21.3166C29.4668 23.2666 28.0834 24.8499 26.3168 24.8499Z" fill="#202020"/>
</svg>
