<svg width="41" height="40" viewBox="0 0 41 40" fill="none" xmlns="http://www.w3.org/2000/svg">
<g clip-path="url(#clip0_4_1070)">
<path d="M20.5 0C9.45667 0 0.5 8.95667 0.5 20C0.5 31.0433 9.45667 40 20.5 40C31.5433 40 40.5 31.0433 40.5 20C40.5 8.95667 31.5483 0 20.5 0ZM10.3667 20.6717L10.4517 20.5367L15.6567 12.3967C15.6741 12.3699 15.6984 12.3483 15.727 12.3342C15.7556 12.32 15.7876 12.3138 15.8194 12.3162C15.8512 12.3186 15.8819 12.3295 15.9081 12.3477C15.9343 12.366 15.9551 12.3909 15.9683 12.42C16.835 14.3683 17.5883 16.7917 17.235 18.3C17.0883 18.92 16.6767 19.76 16.2117 20.5367C16.152 20.6503 16.0869 20.761 16.0167 20.8683C15.9998 20.8923 15.9773 20.9117 15.9511 20.9248C15.9249 20.9379 15.8959 20.9442 15.8667 20.9433H10.5217C10.4898 20.9438 10.4583 20.9357 10.4307 20.9197C10.403 20.9038 10.3802 20.8807 10.3647 20.8528C10.3491 20.8249 10.3414 20.7934 10.3423 20.7615C10.3433 20.7296 10.3528 20.6986 10.37 20.6717H10.3667ZM33.5567 23.4717C33.5571 23.5073 33.547 23.5422 33.5278 23.5721C33.5085 23.602 33.4809 23.6256 33.4483 23.64C33.0433 23.8117 31.665 24.4483 31.0917 25.2433C29.6283 27.28 28.5117 30.1933 26.0117 30.1933H15.5883C14.7083 30.192 13.8371 30.0173 13.0246 29.6792C12.2121 29.341 11.4742 28.8461 10.8531 28.2226C10.2319 27.5991 9.73973 26.8594 9.40461 26.0456C9.0695 25.2319 8.89803 24.3601 8.9 23.48V23.36C8.9 23.2633 8.98 23.1833 9.08 23.1833H14.8883C15.005 23.1833 15.0883 23.2883 15.08 23.4033C15.0367 23.78 15.1083 24.1683 15.2883 24.52C15.6317 25.22 16.3483 25.6567 17.12 25.6567H19.9967V23.4117H17.15C17.1166 23.4113 17.084 23.4019 17.0556 23.3843C17.0272 23.3668 17.0042 23.3419 16.9889 23.3122C16.9737 23.2825 16.9668 23.2493 16.969 23.216C16.9713 23.1827 16.9826 23.1507 17.0017 23.1233L17.1067 22.9733C17.3733 22.5883 17.7583 21.9967 18.1417 21.32C18.4017 20.8633 18.655 20.3767 18.8583 19.8867C18.8983 19.8 18.93 19.7083 18.9667 19.62C19.0217 19.4633 19.0783 19.3167 19.1183 19.1717C19.1576 19.0487 19.1937 18.9248 19.2267 18.8C19.3217 18.3833 19.3617 17.9433 19.3617 17.4883C19.3617 17.3083 19.355 17.12 19.3383 16.9433C19.33 16.7483 19.305 16.5517 19.2817 16.3567C19.263 16.1822 19.2363 16.0087 19.2017 15.8367C19.1568 15.5747 19.1023 15.3146 19.0383 15.0567L19.015 14.9567C18.965 14.7767 18.9217 14.6067 18.865 14.4283C18.7063 13.8807 18.5239 13.3402 18.3183 12.8083C18.2467 12.6083 18.1678 12.4109 18.0817 12.2167C17.9617 11.92 17.8383 11.6517 17.7267 11.4C17.6711 11.2922 17.6189 11.1827 17.57 11.0717C17.5158 10.9519 17.4586 10.8335 17.3983 10.7167C17.3583 10.6283 17.31 10.5433 17.2783 10.4633L16.9267 9.81667C16.8783 9.72833 16.9583 9.62 17.055 9.64833L19.255 10.2433H19.2717L19.56 10.3267L19.88 10.4167L19.9967 10.4483V9.14333C19.9967 8.51167 20.5 8 21.1283 8C21.2767 7.9996 21.4236 8.02922 21.5602 8.08708C21.6969 8.14494 21.8204 8.22983 21.9233 8.33667C22.1361 8.5513 22.2559 8.84109 22.2567 9.14333V11.0833L22.4917 11.1483C22.5083 11.1567 22.5283 11.165 22.5433 11.1767C22.6 11.2167 22.6833 11.28 22.7883 11.36C22.8717 11.4233 22.96 11.5033 23.0633 11.5883C23.3924 11.8565 23.7116 12.1367 24.02 12.4283C24.3767 12.76 24.7767 13.1483 25.16 13.58C25.2683 13.7033 25.3717 13.8233 25.48 13.9567C25.5833 14.0883 25.7 14.2167 25.7967 14.3433C25.9283 14.5167 26.0633 14.6967 26.1883 14.8833C26.2433 14.9717 26.3117 15.0633 26.3633 15.1517C26.5233 15.3883 26.66 15.6317 26.7917 15.8767C26.8483 15.9883 26.9033 16.1117 26.9517 16.2317C27.1 16.56 27.2167 16.8917 27.2883 17.2283C27.312 17.2998 27.3282 17.3735 27.3367 17.4483V17.465C27.36 17.56 27.3683 17.665 27.3767 17.7717C27.4236 18.2643 27.3633 18.7612 27.2 19.2283C27.1483 19.3683 27.1 19.5117 27.0367 19.6517C26.9117 19.935 26.7683 20.2233 26.5967 20.4883C26.54 20.5883 26.4717 20.6917 26.4083 20.7917C26.3367 20.8967 26.26 20.9967 26.1967 21.0917C26.105 21.2179 26.0088 21.3407 25.9083 21.46C25.82 21.58 25.7317 21.7 25.6317 21.8083C25.4967 21.9717 25.365 22.125 25.2233 22.2717C25.1433 22.3683 25.0567 22.4683 24.9633 22.555C24.8767 22.655 24.7833 22.7433 24.7033 22.8233C24.5633 22.9633 24.4533 23.0683 24.3567 23.16L24.1283 23.3633C24.0965 23.3952 24.0534 23.4132 24.0083 23.4133H22.2567V25.6567H24.46C24.9517 25.6567 25.42 25.4833 25.8 25.16C25.9283 25.0483 26.4917 24.56 27.16 23.8233C27.1818 23.7983 27.211 23.7807 27.2433 23.7733L33.3267 22.0117C33.3534 22.0039 33.3815 22.0025 33.4089 22.0075C33.4362 22.0125 33.4621 22.0237 33.4843 22.0403C33.5066 22.057 33.5247 22.0785 33.5373 22.1033C33.5498 22.1281 33.5565 22.1555 33.5567 22.1833V23.4717Z" fill="#202020"/>
</g>
<defs>
<clipPath id="clip0_4_1070">
<rect width="40" height="40" fill="white" transform="translate(0.5)"/>
</clipPath>
</defs>
</svg>
