<svg width="43" height="43" viewBox="0 0 43 43" fill="none" xmlns="http://www.w3.org/2000/svg">
<g filter="url(#filter0_d_4_1076)">
<path d="M38.9333 9.99984C37.65 10.5832 36.2667 10.9665 34.8333 11.1498C36.3 10.2665 37.4333 8.8665 37.9667 7.18317C36.5833 8.0165 35.05 8.59984 33.4333 8.93317C32.1166 7.49984 30.2667 6.6665 28.1667 6.6665C24.25 6.6665 21.05 9.8665 21.05 13.8165C21.05 14.3832 21.1167 14.9332 21.2333 15.4498C15.3 15.1498 10.0167 12.2998 6.49998 7.98317C5.88332 9.03317 5.53332 10.2665 5.53332 11.5665C5.53332 14.0498 6.78332 16.2498 8.71665 17.4998C7.53332 17.4998 6.43332 17.1665 5.46665 16.6665V16.7165C5.46665 20.1832 7.93332 23.0832 11.2 23.7332C10.1512 24.0202 9.05014 24.0601 7.98332 23.8498C8.436 25.2706 9.32255 26.5139 10.5183 27.4047C11.7141 28.2956 13.1591 28.7893 14.65 28.8165C12.1227 30.8172 8.98998 31.8987 5.76665 31.8832C5.19998 31.8832 4.63332 31.8498 4.06665 31.7832C7.23332 33.8165 11 34.9998 15.0333 34.9998C28.1667 34.9998 35.3833 24.0998 35.3833 14.6498C35.3833 14.3332 35.3833 14.0332 35.3666 13.7165C36.7667 12.7165 37.9666 11.4498 38.9333 9.99984Z" fill="#202020"/>
</g>
<defs>
<filter id="filter0_d_4_1076" x="-2.5" y="0" width="48" height="48" filterUnits="userSpaceOnUse" color-interpolation-filters="sRGB">
<feFlood flood-opacity="0" result="BackgroundImageFix"/>
<feColorMatrix in="SourceAlpha" type="matrix" values="0 0 0 0 0 0 0 0 0 0 0 0 0 0 0 0 0 0 127 0" result="hardAlpha"/>
<feOffset dy="4"/>
<feGaussianBlur stdDeviation="2"/>
<feComposite in2="hardAlpha" operator="out"/>
<feColorMatrix type="matrix" values="0 0 0 0 0 0 0 0 0 0 0 0 0 0 0 0 0 0 0.25 0"/>
<feBlend mode="normal" in2="BackgroundImageFix" result="effect1_dropShadow_4_1076"/>
<feBlend mode="normal" in="SourceGraphic" in2="effect1_dropShadow_4_1076" result="shape"/>
</filter>
</defs>
</svg>
